<?xml version="1.0" encoding="UTF-8"?>
<svg width="85px" height="26px" viewBox="0 0 85 26" version="1.1" xmlns="http://www.w3.org/2000/svg" xmlns:xlink="http://www.w3.org/1999/xlink">
    <!-- Generator: Sketch 42 (36781) - http://www.bohemiancoding.com/sketch -->
    <title>logo</title>
    <desc>Created with Sketch.</desc>
    <defs></defs>
    <g id="Page-1" stroke="none" stroke-width="1" fill="none" fill-rule="evenodd">
        <g id="Desktop" transform="translate(-128.000000, -24.000000)" fill="#FFFFFF">
            <g id="logo" transform="translate(128.000000, 24.000000)">
                <path d="M15.174926,17.0119083 C15.1563208,17.2731722 14.8201513,17.3721167 14.6612779,17.1626722 C14.3143466,16.7056861 13.7706019,16.0542417 13.0351513,15.3621722 C11.4737779,16.8485056 10.6693788,18.6221028 10.0953552,19.4772139 C10.0207521,19.6566861 9.80332725,19.7292694 9.63423927,19.6310472 L7.43190021,18.3527139 C6.27436803,19.282575 4.7906985,22.2994778 4.7906985,22.2994778 C4.96945386,18.2790472 6.14285515,16.3028667 6.63260837,15.6454639 C6.74715773,15.4918111 6.95728648,15.4436028 7.12892811,15.5309917 L8.65473283,16.3073806 C9.23112768,15.1480333 10.2208487,13.9977139 10.6381878,13.5378389 C10.0802157,13.2023667 9.4711706,12.8925333 8.81178219,12.6300056 C8.59399249,12.5433389 8.58487232,12.2421722 8.79810193,12.145575 C9.85804828,11.6656583 12.2997006,10.6738667 15.2378552,10.2311444 C15.4561921,10.1981028 15.6489925,10.3750472 15.6334882,10.5929778 L15.174926,17.0119083 Z M10.0149152,6.13813056 C4.48371352,6.13813056 5.47210293e-05,10.5765472 5.47210293e-05,16.0517139 C5.47210293e-05,21.5267 4.48371352,25.9651167 10.0149152,25.9651167 C15.5459345,25.9651167 20.0297758,21.5267 20.0297758,16.0517139 C20.0297758,10.5765472 15.5459345,6.13813056 10.0149152,6.13813056 L10.0149152,6.13813056 Z" id="Fill-1"></path>
                <path d="M35.2140408,19.5481 C36.0789979,18.7150167 36.5118412,17.5343639 36.5118412,16.0066833 C36.5118412,14.4790028 36.0789979,13.3044889 35.2140408,12.4822389 C34.3487189,11.6608917 33.3553498,11.2497667 32.2324742,11.2497667 C31.1101459,11.2497667 30.1158648,11.6664889 29.2509077,12.4995722 C28.3855858,13.3331972 27.9531073,14.51385 27.9531073,16.0415306 C27.9531073,17.5692111 28.3855858,18.7442667 29.2509077,19.5654333 C30.1158648,20.3873222 31.1101459,20.7979056 32.2324742,20.7979056 C33.3553498,20.7979056 34.3487189,20.381725 35.2140408,19.5481 M24.4458541,23.1592111 C22.7150279,21.3074333 21.8500708,18.9349333 21.8500708,16.0415306 C21.8500708,13.1481278 22.7150279,10.76985 24.4458541,8.90633611 C26.1755858,7.04336389 28.2865408,6.110975 30.7770773,6.110975 C33.2672489,6.110975 35.1788369,7.02585 36.5118412,8.85415556 L36.5118412,7.22222222e-05 L42.5101781,7.22222222e-05 L42.5101781,25.69385 L36.5118412,25.69385 L36.5118412,22.8813361 C35.0617339,24.918725 33.1211438,25.9368778 30.6891588,25.9368778 C28.2569914,25.9368778 26.1755858,25.01135 24.4458541,23.1592111" id="Fill-3"></path>
                <path d="M58.2591459,19.5481 C59.124103,18.7150167 59.5569464,17.5343639 59.5569464,16.0066833 C59.5569464,14.4790028 59.124103,13.3044889 58.2591459,12.4822389 C57.393824,11.6608917 56.4004549,11.2497667 55.2775794,11.2497667 C54.1552511,11.2497667 53.16097,11.6664889 52.2960129,12.4995722 C51.430691,13.3331972 50.9982124,14.51385 50.9982124,16.0415306 C50.9982124,17.5692111 51.430691,18.7442667 52.2960129,19.5654333 C53.16097,20.3873222 54.1552511,20.7979056 55.2775794,20.7979056 C56.4004549,20.7979056 57.393824,20.381725 58.2591459,19.5481 M47.4909592,23.1592111 C45.760133,21.3074333 44.895176,18.9349333 44.895176,16.0415306 C44.895176,13.1481278 45.760133,10.76985 47.4909592,8.90633611 C49.220691,7.04336389 51.3316459,6.110975 53.8221824,6.110975 C56.3123541,6.110975 58.2239421,7.02585 59.5569464,8.85415556 L59.5569464,7.22222222e-05 L65.5552833,7.22222222e-05 L65.5552833,25.69385 L59.5569464,25.69385 L59.5569464,22.8813361 C58.1068391,24.918725 56.1662489,25.9368778 53.7342639,25.9368778 C51.3020966,25.9368778 49.220691,25.01135 47.4909592,23.1592111" id="Fill-5"></path>
                <path d="M68.0454367,12.1525444 C68.0454367,10.4397944 68.7819818,9.00473889 70.2552543,7.84719722 C71.7283444,6.69019722 73.7216491,6.110975 76.2355333,6.110975 C78.7490526,6.110975 80.7781084,6.67846111 82.3214238,7.81235 C83.8647393,8.94696111 84.6830011,10.4977528 84.7767564,12.4652667 L78.6386985,12.4652667 C78.5681084,11.7941417 78.3340848,11.3364333 77.9368101,11.0934056 C77.5391706,10.8503778 76.9430762,10.7288639 76.1479796,10.7288639 C74.5813165,10.7288639 73.7977114,11.2035444 73.7977114,12.1525444 C73.7977114,13.0091 74.7564238,13.5993361 76.6742135,13.9232528 C78.6148036,14.2477111 80.3802865,14.7449611 81.9708444,15.4166278 C82.7891062,15.7405444 83.4733015,16.2789611 84.0227006,17.030975 C84.571735,17.7835306 84.8471642,18.7032806 84.8471642,19.7911278 C84.8471642,21.5966833 84.0631942,23.0725444 82.4968959,24.21835 C80.929868,25.3641556 78.954074,25.9368778 76.5691491,25.9368778 C74.183677,25.9368778 72.1958444,25.3984611 70.6060161,24.3225306 C69.0154582,23.2458778 68.1505011,21.6546417 68.0102328,19.5481 L74.148838,19.5481 C74.3120891,20.7287528 75.1536985,21.3188083 76.6742135,21.3188083 C77.3759195,21.3188083 77.9545032,21.1572111 78.4106942,20.8327528 C78.8665204,20.5088361 79.0943423,20.092475 79.0943423,19.5829472 C79.0943423,19.0739611 78.7142135,18.6687944 77.9545032,18.3674472 C77.1942457,18.0670028 76.2763916,17.8122389 75.2007586,17.6036972 C74.1251255,17.3955167 73.0436556,17.134975 71.9567135,16.8222528 C70.8690418,16.5100722 69.9451685,15.9666 69.1852758,15.1905722 C68.4250182,14.4154472 68.0454367,13.40235 68.0454367,12.1525444" id="Fill-7"></path>
            </g>
        </g>
    </g>
</svg>